<svg width="28" height="22" viewBox="0 0 28 22" fill="none" xmlns="http://www.w3.org/2000/svg">
<path d="M14.1971 9.34446C14.1737 9.31458 14.1438 9.29041 14.1097 9.27379C14.0756 9.25717 14.0382 9.24854 14.0002 9.24854C13.9623 9.24854 13.9248 9.25717 13.8907 9.27379C13.8566 9.29041 13.8267 9.31458 13.8033 9.34446L10.3033 13.7726C10.2745 13.8094 10.2566 13.8537 10.2517 13.9002C10.2468 13.9467 10.2551 13.9937 10.2756 14.0358C10.2961 14.0778 10.3281 14.1132 10.3678 14.138C10.4075 14.1627 10.4534 14.1758 10.5002 14.1757H12.8096V21.7507C12.8096 21.8882 12.9221 22.0007 13.0596 22.0007H14.9346C15.0721 22.0007 15.1846 21.8882 15.1846 21.7507V14.1788H17.5002C17.7096 14.1788 17.8252 13.9382 17.6971 13.7757L14.1971 9.34446Z" fill="#555555"/>
<path d="M23.3563 6.45937C21.925 2.68437 18.2781 0 14.0063 0C9.73438 0 6.0875 2.68125 4.65625 6.45625C1.97813 7.15937 0 9.6 0 12.5C0 15.9531 2.79687 18.75 6.24687 18.75H7.5C7.6375 18.75 7.75 18.6375 7.75 18.5V16.625C7.75 16.4875 7.6375 16.375 7.5 16.375H6.24687C5.19375 16.375 4.20312 15.9562 3.46562 15.1969C2.73125 14.4406 2.34062 13.4219 2.375 12.3656C2.40312 11.5406 2.68437 10.7656 3.19375 10.1125C3.71562 9.44687 4.44688 8.9625 5.25938 8.74687L6.44375 8.4375L6.87813 7.29375C7.14688 6.58125 7.52187 5.91562 7.99375 5.3125C8.4596 4.71471 9.01142 4.18922 9.63125 3.75312C10.9156 2.85 12.4281 2.37187 14.0063 2.37187C15.5844 2.37187 17.0969 2.85 18.3813 3.75312C19.0031 4.19062 19.5531 4.71562 20.0187 5.3125C20.4906 5.91562 20.8656 6.58437 21.1344 7.29375L21.5656 8.43437L22.7469 8.74687C24.4406 9.20312 25.625 10.7437 25.625 12.5C25.625 13.5344 25.2219 14.5094 24.4906 15.2406C24.132 15.6013 23.7054 15.8873 23.2355 16.082C22.7656 16.2768 22.2618 16.3763 21.7531 16.375H20.5C20.3625 16.375 20.25 16.4875 20.25 16.625V18.5C20.25 18.6375 20.3625 18.75 20.5 18.75H21.7531C25.2031 18.75 28 15.9531 28 12.5C28 9.60312 26.0281 7.16562 23.3563 6.45937Z" fill="#555555"/>
</svg>
