<svg width="16" height="17" viewBox="0 0 16 17" fill="none" xmlns="http://www.w3.org/2000/svg">
<path d="M12.735 11.932C11.9332 11.0845 10.9669 10.4094 9.89527 9.94807C8.82366 9.48673 7.66921 9.24878 6.5025 9.24878C5.3358 9.24878 4.18135 9.48673 3.10973 9.94807C2.03811 10.4094 1.07185 11.0845 0.270001 11.932C0.0961574 12.1177 -0.000393456 12.3626 1.20515e-06 12.617V15.247C1.20515e-06 15.5122 0.105358 15.7665 0.292894 15.9541C0.480431 16.1416 0.734785 16.247 1 16.247H12C12.2652 16.247 12.5196 16.1416 12.7071 15.9541C12.8946 15.7665 13 15.5122 13 15.247V12.617C13.0018 12.3633 12.907 12.1184 12.735 11.932V11.932ZM12 15.247H1V12.612C1.70862 11.8658 2.56165 11.2716 3.50718 10.8656C4.45271 10.4596 5.47098 10.2502 6.5 10.2502C7.52903 10.2502 8.54729 10.4596 9.49282 10.8656C10.4384 11.2716 11.2914 11.8658 12 12.612V15.247Z" fill="#606060"/>
<path d="M6.5001 8.24697C7.31211 8.24648 8.09869 7.96367 8.7251 7.44697H8.6151C8.2095 7.44019 7.81751 7.29957 7.5001 7.04697C7.09134 7.22295 6.64303 7.28663 6.20144 7.23143C5.75986 7.17623 5.34101 7.00416 4.98815 6.73299C4.63529 6.46182 4.36121 6.10137 4.19421 5.68887C4.02722 5.27637 3.97336 4.82676 4.0382 4.38649C4.10303 3.94622 4.28422 3.53123 4.56304 3.18438C4.84187 2.83754 5.20822 2.57141 5.62428 2.41347C6.04033 2.25553 6.491 2.21152 6.92975 2.28597C7.3685 2.36041 7.77943 2.55063 8.1201 2.83697L8.6201 1.95697C8.17768 1.62187 7.66192 1.39678 7.11537 1.30029C6.56883 1.20379 6.00717 1.23865 5.47675 1.40199C4.94634 1.56533 4.46237 1.85247 4.06479 2.23971C3.66721 2.62695 3.36741 3.10319 3.19015 3.62911C3.01289 4.15504 2.96325 4.71559 3.04531 5.26449C3.12737 5.81338 3.33879 6.3349 3.66212 6.78599C3.98544 7.23708 4.41141 7.60481 4.90486 7.85884C5.39831 8.11287 5.9451 8.2459 6.5001 8.24697Z" fill="#606060"/>
<path d="M10.9252 0.316977L8.06519 5.24698C7.99865 5.34464 7.96045 5.45882 7.95483 5.57687C7.9492 5.69491 7.97637 5.8122 8.03332 5.91575C8.09028 6.0193 8.17479 6.10506 8.27749 6.16352C8.38019 6.22199 8.49708 6.25087 8.61519 6.24698H14.3402C14.4583 6.25087 14.5752 6.22199 14.6779 6.16352C14.7806 6.10506 14.8651 6.0193 14.9221 5.91575C14.979 5.8122 15.0062 5.69491 15.0005 5.57687C14.9949 5.45882 14.9567 5.34464 14.8902 5.24698L12.0302 0.316977C11.9738 0.220505 11.8931 0.140483 11.7962 0.0848718C11.6992 0.029261 11.5894 0 11.4777 0C11.3659 0 11.2561 0.029261 11.1592 0.0848718C11.0623 0.140483 10.9816 0.220505 10.9252 0.316977V0.316977Z" fill="#606060"/>
</svg>
