<svg width="35" height="12" viewBox="0 0 35 12" fill="none" xmlns="http://www.w3.org/2000/svg">
<path d="M2.5 11.5C2.5 11.3674 2.55268 11.2402 2.64645 11.1464C2.74021 11.0527 2.86739 11 3 11H13C13.1326 11 13.2598 11.0527 13.3536 11.1464C13.4473 11.2402 13.5 11.3674 13.5 11.5C13.5 11.6326 13.4473 11.7598 13.3536 11.8536C13.2598 11.9473 13.1326 12 13 12H3C2.86739 12 2.74021 11.9473 2.64645 11.8536C2.55268 11.7598 2.5 11.6326 2.5 11.5ZM2 0H14C14 0 16 0 16 2V8C16 8 16 10 14 10H2C2 10 0 10 0 8V2C0 2 0 0 2 0Z" fill="#6C18D8"/>
<path d="M18.5888 5.392L18.5408 8.908L20.1128 9.28L21.5048 7.408L21.1808 5.284L20.0048 4.9L18.5888 5.392ZM17.7608 0.76L18.2528 1.756L18.5408 4.564L20.1248 4.132L21.9368 4.816L22.5728 7.48L20.9528 9.904L18.2168 9.796L17.5448 9.22L17.4848 2.296L16.8248 1.456L17.7608 0.76ZM25.1776 4.492L24.1216 5.86L24.3496 8.224L25.6816 9.484L26.5816 9.472L27.7096 7.264L27.2056 5.188L26.4016 4.588L25.1776 4.492ZM26.8096 3.688L28.0816 4.864L28.5616 7.612L26.8696 10.264L25.1896 10.336L23.4256 8.212L23.2936 5.476L24.7936 3.688H26.8096ZM34.5379 10.096H32.5099L32.4739 9.784L32.8579 9.64L31.9099 7.876L31.5739 7.192L30.4099 9.556L31.0579 9.784L31.0099 10.12L28.9459 10.096L28.9219 9.76L29.3179 9.652L31.1539 6.616L29.5699 4.456L28.9819 4.264L28.9939 3.928H31.0819L31.1179 4.228L30.6019 4.432L31.7299 6.268L32.7859 4.372L32.4019 4.156L32.4739 3.88L34.4899 4.084L34.3939 4.468L33.6379 4.66L32.2099 7L33.9139 9.496L34.4899 9.7L34.5379 10.096Z" fill="#240046"/>
</svg>
