<svg width="78" height="39" viewBox="0 0 78 39" fill="none" xmlns="http://www.w3.org/2000/svg">
<path d="M5 38.2C3.8 38.2 2.81333 37.6533 2.04 36.56C1.29333 35.44 0.92 34.0533 0.92 32.4C0.92 30.4 1.05333 28.5733 1.32 26.92C1.58667 25.24 2.02667 23.4667 2.64 21.6C2.90667 20.8 3.28 20.2267 3.76 19.88C4.24 19.5333 5 19.36 6.04 19.36C6.62667 19.36 7.02667 19.4533 7.24 19.64C7.48 19.8267 7.6 20.1067 7.6 20.48C7.6 20.6933 7.45333 21.4133 7.16 22.64C6.89333 23.6267 6.68 24.52 6.52 25.32C5.98667 28.12 5.72 29.9867 5.72 30.92C5.72 31.48 5.78667 31.88 5.92 32.12C6.05333 32.3333 6.26667 32.44 6.56 32.44C6.96 32.44 7.45333 32.04 8.04 31.24C8.65333 30.44 9.29333 29.2267 9.96 27.6C10.6533 25.9733 11.32 23.9733 11.96 21.6C12.1733 20.8 12.4933 20.2267 12.92 19.88C13.3733 19.5333 14.04 19.36 14.92 19.36C15.5333 19.36 15.96 19.44 16.2 19.6C16.44 19.7333 16.56 20 16.56 20.4C16.56 21.0667 16.2267 22.8933 15.56 25.88C14.8133 29.2933 14.44 31.4 14.44 32.2C14.44 32.7067 14.5467 33.1067 14.76 33.4C14.9733 33.6667 15.2533 33.8 15.6 33.8C16.1333 33.8 16.76 33.48 17.48 32.84C18.2267 32.1733 19.2133 31.1067 20.44 29.64C20.76 29.2667 21.12 29.08 21.52 29.08C21.8667 29.08 22.1333 29.24 22.32 29.56C22.5333 29.88 22.64 30.32 22.64 30.88C22.64 31.9467 22.3867 32.7733 21.88 33.36C20.7333 34.7733 19.4933 35.9333 18.16 36.84C16.8533 37.7467 15.36 38.2 13.68 38.2C12.4 38.2 11.4533 37.7067 10.84 36.72C10.2533 35.7333 9.96 34.3467 9.96 32.56C9.50667 34.3733 8.82667 35.7733 7.92 36.76C7.01333 37.72 6.04 38.2 5 38.2ZM40.6766 25.72C41.0232 25.72 41.2899 25.8933 41.4766 26.24C41.6632 26.5867 41.7566 27.0267 41.7566 27.56C41.7566 28.2267 41.6632 28.7467 41.4766 29.12C41.2899 29.4667 40.9966 29.7067 40.5966 29.84C38.9966 30.4 37.2366 30.72 35.3166 30.8C34.7832 33.0133 33.7699 34.8 32.2766 36.16C30.8099 37.52 29.1832 38.2 27.3966 38.2C24.7032 38.2 22.7432 37.1733 21.5166 35.12C20.2899 33.0667 19.6766 30.0933 19.6766 26.2C19.6766 22.76 20.1032 19.0267 20.9566 15C21.8099 10.9467 23.0499 7.50666 24.6766 4.68C26.3299 1.82666 28.2899 0.399998 30.5566 0.399998C31.7832 0.399998 32.7699 0.933331 33.5166 2C34.2632 3.04 34.6366 4.4 34.6366 6.08C34.6366 8.26667 34.2232 10.44 33.3966 12.6C32.5699 14.76 31.1966 17.0267 29.2766 19.4C31.0632 19.5333 32.5166 20.28 33.6366 21.64C34.7566 22.9733 35.4232 24.6267 35.6366 26.6C36.8899 26.52 38.3832 26.2533 40.1166 25.8C40.2766 25.7467 40.4632 25.72 40.6766 25.72ZM29.6366 4.36C29.1032 4.36 28.5166 5.16 27.8766 6.76C27.2632 8.33333 26.6899 10.48 26.1566 13.2C25.6232 15.92 25.2232 18.8933 24.9566 22.12C26.7166 18.8933 28.1166 16.0533 29.1566 13.6C30.2232 11.12 30.7566 8.92 30.7566 7C30.7566 6.14667 30.6499 5.49333 30.4366 5.04C30.2499 4.58667 29.9832 4.36 29.6366 4.36ZM27.5566 33.96C28.3832 33.96 29.1166 33.6133 29.7566 32.92C30.3966 32.2267 30.8232 31.2267 31.0366 29.92C30.2099 29.36 29.5699 28.6267 29.1166 27.72C28.6899 26.8133 28.4766 25.8533 28.4766 24.84C28.4766 24.4667 28.5299 23.96 28.6366 23.32H28.5166C27.4232 23.32 26.5032 23.8667 25.7566 24.96C25.0366 26.0267 24.6766 27.4667 24.6766 29.28C24.6766 30.8 24.9566 31.96 25.5166 32.76C26.1032 33.56 26.7832 33.96 27.5566 33.96ZM45.0628 38.2C43.4895 38.2 42.1428 37.8133 41.0228 37.04C39.9295 36.24 39.1028 35.2 38.5428 33.92C37.9828 32.64 37.7028 31.2667 37.7028 29.8C37.7028 27.7733 38.0761 25.9733 38.8228 24.4C39.5961 22.8 40.6361 21.56 41.9428 20.68C43.2495 19.7733 44.7161 19.32 46.3428 19.32C47.9161 19.32 49.2628 19.72 50.3828 20.52C51.5028 21.2933 52.3428 22.32 52.9028 23.6C53.4628 24.88 53.7428 26.2533 53.7428 27.72C53.7428 29.7467 53.3561 31.56 52.5828 33.16C51.8095 34.7333 50.7561 35.9733 49.4228 36.88C48.1161 37.76 46.6628 38.2 45.0628 38.2ZM45.5028 33.88C46.4095 33.88 47.1695 33.3867 47.7828 32.4C48.4228 31.4133 48.7428 29.9733 48.7428 28.08C48.7428 26.6133 48.4761 25.5067 47.9428 24.76C47.4095 24.0133 46.7695 23.64 46.0228 23.64C45.0628 23.64 44.2628 24.1333 43.6228 25.12C43.0095 26.08 42.7028 27.52 42.7028 29.44C42.7028 30.96 42.9695 32.08 43.5028 32.8C44.0361 33.52 44.7028 33.88 45.5028 33.88ZM76.5666 30.28C76.9132 30.28 77.1799 30.44 77.3666 30.76C77.5799 31.08 77.6866 31.52 77.6866 32.08C77.6866 33.04 77.4599 33.8667 77.0066 34.56C75.4332 36.9867 73.1932 38.2 70.2866 38.2C69.0332 38.2 67.9132 37.96 66.9266 37.48C65.9666 36.9733 65.1799 36.2533 64.5666 35.32C63.0199 37.2133 61.2199 38.16 59.1666 38.16C57.6999 38.16 56.5399 37.7333 55.6866 36.88C54.8332 36.0267 54.4066 34.8933 54.4066 33.48C54.4066 32.1467 54.7132 31.0667 55.3266 30.24C55.9399 29.4133 56.8066 29 57.9266 29C58.8866 29 59.3666 29.36 59.3666 30.08C59.3666 30.2933 59.3399 30.6667 59.2866 31.2L59.1666 32.72C59.1666 33.52 59.5132 33.92 60.2066 33.92C60.7132 33.92 61.1932 33.6267 61.6466 33.04C62.1266 32.4267 62.5132 31.6 62.8066 30.56C63.1266 29.52 63.2866 28.3733 63.2866 27.12C63.2866 26.16 63.1666 25.36 62.9266 24.72C62.6866 24.0533 62.3932 23.72 62.0466 23.72C61.7532 23.72 61.5399 23.8 61.4066 23.96C61.2732 24.0933 61.1399 24.3333 61.0066 24.68C60.8466 25.1067 60.6332 25.4533 60.3666 25.72C60.0999 25.96 59.6332 26.08 58.9666 26.08C58.3799 26.08 57.9132 25.88 57.5666 25.48C57.2199 25.0533 57.0466 24.4133 57.0466 23.56C57.0466 22.2 57.4599 21.1333 58.2866 20.36C59.1132 19.5867 60.1799 19.2 61.4866 19.2C62.6066 19.2 63.6199 19.48 64.5266 20.04C65.4332 20.5733 66.1266 21.36 66.6066 22.4C67.4066 21.3333 68.2999 20.5333 69.2866 20C70.2999 19.4667 71.2866 19.2 72.2466 19.2C73.2866 19.2 74.0732 19.44 74.6066 19.92C75.1666 20.4 75.4466 21.1733 75.4466 22.24C75.4466 23.44 75.2199 24.3867 74.7666 25.08C74.3132 25.7467 73.7666 26.08 73.1266 26.08C72.5399 26.08 72.1399 25.96 71.9266 25.72C71.7132 25.48 71.5532 25.1333 71.4466 24.68C71.3932 24.36 71.3132 24.12 71.2066 23.96C71.0999 23.8 70.9132 23.72 70.6466 23.72C70.3266 23.72 69.9799 24.0267 69.6066 24.64C69.2599 25.2267 68.9532 26.0133 68.6866 27C68.4466 27.9867 68.3266 29.0133 68.3266 30.08C68.3266 31.28 68.5932 32.24 69.1266 32.96C69.6866 33.68 70.3532 34.04 71.1266 34.04C72.5932 34.04 74.0466 32.9867 75.4866 30.88C75.7532 30.48 76.1132 30.28 76.5666 30.28Z" fill="#222222"/>
</svg>
